<svg xmlns="http://www.w3.org/2000/svg" viewBox="0 0 1200 800" fill="none">
  <defs>
    <linearGradient id="bg" x1="0%" y1="0%" x2="100%" y2="100%">
      <stop offset="0%" style="stop-color:#10b981;stop-opacity:1" />
      <stop offset="100%" style="stop-color:#059669;stop-opacity:1" />
    </linearGradient>
    <pattern id="grid" width="60" height="60" patternUnits="userSpaceOnUse">
      <path d="M 60 0 L 0 0 0 60" fill="none" stroke="rgba(255,255,255,0.1)" stroke-width="1"/>
    </pattern>
  </defs>

  <!-- Background -->
  <rect width="100%" height="100%" fill="url(#bg)"/>
  <rect width="100%" height="100%" fill="url(#grid)"/>

  <!-- Floating geometric shapes -->
  <circle cx="150" cy="150" r="80" fill="rgba(255,255,255,0.08)" opacity="0.6">
    <animate attributeName="cy" values="150;130;150" dur="4s" repeatCount="indefinite"/>
  </circle>

  <circle cx="1000" cy="200" r="120" fill="rgba(255,255,255,0.05)" opacity="0.8">
    <animate attributeName="cx" values="1000;1020;1000" dur="6s" repeatCount="indefinite"/>
  </circle>

  <circle cx="200" cy="600" r="60" fill="rgba(255,255,255,0.06)" opacity="0.7">
    <animate attributeName="cy" values="600;580;600" dur="5s" repeatCount="indefinite"/>
  </circle>

  <circle cx="900" cy="650" r="90" fill="rgba(255,255,255,0.04)" opacity="0.5">
    <animate attributeName="cx" values="900;920;900" dur="7s" repeatCount="indefinite"/>
  </circle>

  <!-- Abstract shapes -->
  <polygon points="300,100 350,150 300,200 250,150" fill="rgba(255,255,255,0.07)" opacity="0.6">
    <animateTransform attributeName="transform" type="rotate" values="0 300 150;360 300 150" dur="20s" repeatCount="indefinite"/>
  </polygon>

  <polygon points="800,500 860,540 800,580 740,540" fill="rgba(255,255,255,0.05)" opacity="0.4">
    <animateTransform attributeName="transform" type="rotate" values="0 800 540;-360 800 540" dur="25s" repeatCount="indefinite"/>
  </polygon>

  <!-- Dashboard/Admin themed icons -->
  <g transform="translate(100,400)" fill="rgba(255,255,255,0.08)">
    <rect x="0" y="0" width="40" height="40" rx="8"/>
    <rect x="50" y="0" width="40" height="40" rx="8"/>
    <rect x="0" y="50" width="90" height="20" rx="4"/>
    <rect x="0" y="80" width="60" height="20" rx="4"/>
    <animate attributeName="opacity" values="0.08;0.12;0.08" dur="3s" repeatCount="indefinite"/>
  </g>

  <g transform="translate(950,100)" fill="rgba(255,255,255,0.06)">
    <circle cx="20" cy="20" r="15"/>
    <rect x="10" y="45" width="20" height="3" rx="1"/>
    <rect x="5" y="55" width="30" height="3" rx="1"/>
    <rect x="15" y="65" width="10" height="3" rx="1"/>
    <animate attributeName="opacity" values="0.06;0.1;0.06" dur="4s" repeatCount="indefinite"/>
  </g>

  <!-- Connecting lines -->
  <path d="M 150 150 Q 400 100 800 200" stroke="rgba(255,255,255,0.05)" stroke-width="2" fill="none" opacity="0.6">
    <animate attributeName="opacity" values="0.6;0.3;0.6" dur="8s" repeatCount="indefinite"/>
  </path>

  <path d="M 200 600 Q 500 400 900 650" stroke="rgba(255,255,255,0.04)" stroke-width="2" fill="none" opacity="0.5">
    <animate attributeName="opacity" values="0.5;0.2;0.5" dur="10s" repeatCount="indefinite"/>
  </path>
</svg>